# xmcd CD database file
#
# Track frame offsets:
#	150
#	19206
#	36948
#	55975
#	75472
#	96259
#	112178
#	128402
#	145846
#	175295
#
# Disc length: 3322 seconds
#
# Revision: 0
# Processed by: cddbd v1.5.2PL0 Copyright (c) Steve Scherf et al.
# Submitted via: CDex 1.51
#
DISCID=830cf80a
DTITLE=Lisa Ekdahl - Give me that slow knowing smile
DYEAR=2009
DGENRE=Jazz
TTITLE0=Give me that slow knowing smile
TTITLE1=I don't mind
TTITLE2=I'll be around
TTITLE3=One life
TTITLE4=The world keeps turning
TTITLE5=Don't stop
TTITLE6=When
TTITLE7=Sing
TTITLE8=Beautiful bay
TTITLE9=I'll be around, intimate live session
EXTD=YEAR: 2009
EXTT0=
EXTT1=
EXTT2=
EXTT3=
EXTT4=
EXTT5=
EXTT6=
EXTT7=
EXTT8=
EXTT9=
PLAYORDER=
